<?xml version="1.0" standalone="no"?>
<!DOCTYPE svg PUBLIC "-//W3C//DTD SVG 20010904//EN"
 "http://www.w3.org/TR/2001/REC-SVG-20010904/DTD/svg10.dtd">
<svg version="1.0" xmlns="http://www.w3.org/2000/svg"
 width="364.000000pt" height="368.000000pt" viewBox="0 0 364.000000 368.000000"
 preserveAspectRatio="xMidYMid meet">

<g transform="translate(0.000000,368.000000) scale(0.100000,-0.100000)"
fill="#000000" stroke="none">
<path d="M1901 3556 c-16 -19 -31 -71 -37 -128 -4 -40 -2 -49 15 -58 11 -6 24
-25 29 -43 8 -30 11 -32 60 -35 50 -3 52 -2 52 23 0 15 11 36 25 49 20 18 25
33 25 69 0 25 -4 48 -8 51 -5 3 -7 18 -4 34 5 38 -21 61 -46 40 -31 -27 -69
-31 -85 -8 -12 17 -16 18 -26 6z"/>
<path d="M1919 3278 c-4 -12 -8 -468 -4 -468 3 0 17 12 31 27 l24 26 23 -21
c13 -12 27 -22 31 -22 4 0 5 64 2 143 -3 78 -5 181 -5 230 l-1 87 -50 0 c-27
0 -50 -1 -51 -2z"/>
<path d="M2552 2928 c-65 -159 -70 -203 -60 -528 1 -25 -6 -63 -15 -85 -22
-54 -25 -376 -3 -394 11 -9 14 3 19 65 3 42 10 81 16 87 6 6 11 19 11 28 0 35
25 42 92 25 251 -63 418 -267 418 -511 0 -92 -20 -170 -72 -275 -69 -142 -233
-290 -380 -341 -47 -16 -68 2 -68 60 0 23 -4 41 -10 41 -6 0 -11 69 -12 172
l-3 173 -18 -55 c-32 -100 -38 -167 -27 -287 8 -76 8 -118 1 -131 -7 -13 -7
-22 2 -31 8 -8 11 -52 9 -137 -1 -92 2 -131 12 -147 8 -13 17 -67 21 -127 5
-66 13 -116 24 -135 16 -29 16 -27 22 100 3 72 9 140 13 152 5 16 2 23 -13 28
-47 15 -31 101 21 112 18 3 34 16 43 33 8 15 49 57 92 93 69 59 83 67 121 67
41 0 42 1 43 33 0 27 13 44 85 111 69 64 84 74 84 56 0 -12 5 -20 12 -18 22 8
87 112 115 183 27 71 60 123 77 124 6 1 19 9 30 20 30 26 141 61 198 61 26 0
48 4 48 10 0 5 -52 26 -115 46 -93 29 -119 41 -133 63 -9 14 -21 29 -26 32
-21 15 4 39 41 39 l38 1 -57 52 c-31 29 -60 63 -64 77 -20 72 -135 188 -287
290 -116 79 -159 134 -250 318 l-70 144 7 189 c4 104 5 189 3 189 -3 0 -18
-33 -35 -72z m458 -1048 c0 -5 -4 -10 -10 -10 -5 0 -10 5 -10 10 0 6 5 10 10
10 6 0 10 -4 10 -10z"/>
<path d="M1940 2822 c-14 -13 -35 -33 -47 -44 -28 -27 -126 -48 -225 -48 -72
0 -78 -2 -78 -20 0 -12 8 -35 17 -53 16 -30 18 -31 21 -9 6 38 42 52 149 59
l100 6 5 -369 c3 -245 1 -371 -6 -376 -5 -3 -26 -9 -45 -13 -59 -11 -138 -54
-194 -105 -164 -150 -180 -475 -31 -640 54 -60 140 -114 218 -136 l66 -19 0
-333 c0 -356 10 -494 41 -578 27 -71 41 -81 62 -45 43 73 49 139 56 555 l6
399 52 17 c119 39 232 134 279 235 28 60 48 150 39 173 -4 9 -8 49 -9 87 -1
57 -8 82 -35 138 -57 114 -181 221 -305 261 -18 6 -19 15 -13 179 4 95 7 259
7 365 l0 192 105 0 c92 0 108 -3 125 -20 11 -11 20 -26 20 -32 1 -21 29 35 30
58 0 28 -49 39 -93 21 -26 -11 -36 -11 -57 0 -14 7 -46 15 -72 18 -37 5 -60
17 -105 53 l-58 48 -25 -24z m-10 -215 c0 -77 3 -94 15 -94 12 0 15 17 15 89
0 67 3 88 14 88 11 0 12 -100 9 -607 -2 -335 -5 -806 -6 -1048 -1 -246 -3
-328 -4 -185 -2 169 -7 263 -14 277 -9 17 -9 26 1 38 9 11 11 50 7 158 -3 78
-6 368 -6 645 -1 436 -3 505 -16 518 -13 14 -15 10 -15 -38 0 -29 -3 -98 -8
-153 l-7 -100 -5 138 c-7 181 -1 367 11 367 5 0 9 -42 9 -93z m102 -317 c-8
-72 -10 -47 -11 156 0 132 2 244 7 248 11 11 14 -306 4 -404z m-160 -607 c2
-115 1 -285 -2 -380 l-5 -171 -40 19 c-48 24 -116 89 -141 135 -10 19 -24 34
-32 34 -17 0 -28 30 -14 39 8 5 9 29 3 81 -17 155 19 290 97 368 36 36 103 80
124 82 4 0 8 -93 10 -207z m259 169 c124 -79 188 -250 161 -433 -22 -153 -87
-243 -207 -289 l-25 -10 0 380 c0 306 3 380 13 380 7 0 33 -13 58 -28z"/>
<path d="M728 2550 c-72 -13 -149 -40 -142 -51 3 -5 -8 -9 -23 -9 -77 0 -262
-155 -345 -290 -64 -102 -108 -237 -108 -328 0 -97 25 -230 60 -320 37 -94
104 -202 130 -209 11 -3 20 -13 20 -23 0 -36 135 -141 246 -191 104 -47 184
-63 324 -62 99 0 142 5 205 23 106 30 157 35 235 21 81 -15 103 -29 169 -108
43 -52 51 -69 51 -103 0 -36 2 -40 25 -40 25 0 25 1 25 85 0 84 0 85 -25 85
-17 0 -25 6 -25 18 0 9 -7 26 -15 36 -8 11 -15 34 -15 50 0 17 -5 38 -10 46
-8 13 -10 12 -10 -2 0 -10 -6 -18 -14 -18 -47 0 -47 376 0 522 18 56 89 167
164 257 l53 64 -41 -23 c-158 -89 -262 -262 -262 -436 0 -49 -4 -74 -12 -74
-8 0 -9 -35 -5 -130 6 -112 5 -130 -8 -130 -9 0 -15 9 -15 24 0 14 -4 28 -10
31 -6 4 -7 72 -3 183 6 194 17 242 74 335 59 97 61 102 23 59 -22 -23 -45 -42
-51 -42 -18 0 -17 5 12 50 14 22 25 42 25 44 0 3 -21 -9 -46 -26 -120 -81
-273 -117 -524 -125 -194 -6 -203 -11 -65 -38 107 -21 185 -26 185 -12 0 7 4
18 9 26 8 12 15 10 40 -12 28 -23 38 -25 84 -21 28 3 62 10 74 16 17 8 33 8
63 -2 40 -13 41 -13 70 21 39 45 38 21 -2 -53 -19 -36 -57 -83 -96 -118 -62
-57 -63 -59 -39 -65 14 -4 36 -4 48 0 l22 7 -7 -108 c-8 -128 -17 -146 -98
-187 -48 -25 -67 -29 -139 -29 -134 0 -274 46 -384 126 -27 20 -61 36 -74 36
-18 0 -21 3 -12 13 8 11 3 20 -21 43 -47 44 -123 166 -148 236 -31 87 -38 249
-16 338 57 228 252 422 478 475 80 19 215 19 295 0 73 -17 174 -61 235 -102
67 -46 75 -49 43 -14 -78 84 -220 170 -350 211 -78 24 -247 35 -327 20z m-328
-1220 c0 -5 -4 -10 -10 -10 -5 0 -10 5 -10 10 0 6 5 10 10 10 6 0 10 -4 10
-10z m705 -210 c-5 -8 -11 -8 -17 -2 -6 6 -7 16 -3 22 5 8 11 8 17 2 6 -6 7
-16 3 -22z"/>
</g>
</svg>
